<?xml version="1.0" standalone="no"?>
<!DOCTYPE svg PUBLIC "-//W3C//DTD SVG 20010904//EN"
 "http://www.w3.org/TR/2001/REC-SVG-20010904/DTD/svg10.dtd">
<svg version="1.0" xmlns="http://www.w3.org/2000/svg"
 width="640.000000pt" height="640.000000pt" viewBox="0 0 640.000000 640.000000"
 preserveAspectRatio="xMidYMid meet">

<g transform="translate(0.000000,640.000000) scale(0.100000,-0.100000)"
fill="#000000" stroke="none">
<path d="M0 3200 l0 -3200 2051 0 2050 0 -6 23 c-5 16 -4 18 3 8 8 -11 11 -9
14 9 4 29 25 38 31 13 4 -14 5 -14 6 -2 0 9 -8 24 -19 34 -19 18 -20 17 -20
-4 0 -12 -4 -19 -10 -16 -5 3 -10 1 -10 -6 0 -8 -4 -8 -15 1 -8 7 -14 20 -14
29 1 13 2 13 6 -2 2 -9 9 -17 14 -17 13 0 11 16 -4 32 -19 19 -39 58 -30 58 4
0 18 -15 31 -33 15 -22 22 -26 22 -14 0 9 -4 17 -8 17 -12 0 -32 46 -33 78
l-1 27 -7 -25 -7 -25 -17 32 c-10 18 -13 33 -7 33 5 0 10 -8 11 -17 0 -10 3
-13 5 -6 3 6 -2 23 -11 37 -12 17 -15 35 -10 56 7 30 25 33 25 4 0 -8 -4 -12
-10 -9 -6 3 -10 -2 -10 -12 0 -10 9 -24 20 -31 11 -7 20 -8 20 -3 0 6 -5 13
-10 16 -6 3 -7 17 -4 30 3 12 1 26 -5 30 -6 3 -8 17 -5 30 3 12 1 26 -4 29 -6
3 -8 -3 -6 -16 4 -21 4 -21 -5 -3 -4 11 -6 24 -4 28 3 5 -3 18 -14 29 -10 12
-12 18 -4 13 14 -8 13 13 -4 60 -6 19 -6 19 8 3 20 -25 30 -22 15 4 -19 33
-32 40 -40 20 -5 -12 -7 -9 -8 13 -2 19 -4 23 -7 12 -4 -16 -7 -15 -29 8 -29
31 -32 45 -5 21 13 -11 21 -14 26 -7 3 6 -1 14 -9 17 -17 7 -22 34 -6 34 5 0
6 8 3 17 -6 15 -7 15 -13 -2 -9 -26 -18 -5 -11 24 6 23 7 23 24 6 17 -17 18
-16 11 10 -5 21 -4 27 7 23 8 -3 29 4 47 14 18 10 37 16 43 13 5 -4 9 3 9 14
0 17 -3 19 -18 12 -74 -40 -192 -84 -192 -72 0 5 14 14 32 20 17 6 29 14 25
17 -3 3 -14 1 -25 -5 -13 -7 -23 -7 -32 2 -10 9 -11 9 -6 -1 4 -7 0 -15 -9
-18 -20 -8 -53 20 -36 30 6 4 11 2 11 -4 0 -6 4 -9 9 -6 5 3 7 16 3 29 l-5 22
23 -20 c22 -18 23 -19 17 -2 -11 30 2 38 31 20 l27 -17 -24 27 c-26 29 -23 34
11 16 18 -10 20 -9 16 9 -5 18 -3 20 17 12 13 -5 26 -7 29 -4 3 2 4 1 1 -3 -3
-3 4 -13 16 -21 19 -13 19 -15 2 -28 -29 -21 -7 -16 50 12 136 69 286 189 376
302 191 238 285 606 182 711 -14 15 -21 20 -15 12 47 -65 56 -148 30 -273 -21
-94 -41 -151 -91 -252 -89 -176 -210 -313 -366 -416 -50 -33 -95 -60 -99 -60
-4 0 -14 18 -23 40 -14 36 -14 40 0 40 13 0 13 3 3 15 -7 9 -10 18 -6 22 3 3
6 2 6 -4 0 -5 7 -10 15 -10 13 0 13 3 1 21 -7 12 -18 21 -24 21 -6 0 -14 3
-18 8 -11 10 -42 9 -46 -3 -2 -6 -8 -6 -18 1 -19 12 -1 27 90 78 124 71 241
186 320 316 43 73 95 220 115 331 24 124 9 191 -58 261 -17 18 -27 36 -23 40
4 4 37 -23 73 -60 36 -37 71 -67 77 -67 6 0 45 -16 86 -36 41 -20 129 -55 195
-79 66 -24 271 -98 455 -165 184 -67 427 -153 539 -191 255 -88 397 -154 564
-263 l27 -18 0 2646 0 2646 -3200 0 -3200 0 0 -3200z m3911 2833 c13 -16 12
-17 -3 -4 -10 7 -18 15 -18 17 0 8 8 3 21 -13z m191 -45 c-5 -21 -4 -22 12 -9
28 24 25 8 -5 -24 l-29 -30 0 31 c0 16 5 35 12 42 16 16 17 15 10 -10z m171
-44 c9 -4 17 -11 17 -16 0 -5 -4 -7 -9 -3 -5 3 -12 1 -15 -4 -4 -5 -2 -12 4
-16 6 -4 8 -10 5 -15 -3 -5 6 -17 20 -28 14 -11 25 -24 25 -28 0 -4 -5 -3 -12
4 -8 8 -15 9 -25 0 -10 -8 -12 -7 -8 5 9 22 -14 32 -29 12 -10 -14 -12 -11 -8
20 3 24 1 35 -6 31 -5 -3 -12 1 -16 9 -3 8 -12 12 -21 9 -25 -10 -17 4 13 20
15 8 32 13 37 11 6 -3 18 -8 28 -11z m31 7 c4 -5 -3 -7 -14 -4 -23 6 -26 13
-6 13 8 0 17 -4 20 -9z m-128 -10 c-8 -12 -46 -21 -46 -11 0 9 18 18 38 19 7
1 11 -3 8 -8z m-351 -11 c3 -5 1 -10 -4 -10 -6 0 -11 5 -11 10 0 6 2 10 4 10
3 0 8 -4 11 -10z m-75 -4 c0 -2 -7 -7 -16 -10 -8 -3 -12 -2 -9 4 6 10 25 14
25 6z m44 -21 c-4 -8 -12 -15 -20 -15 -8 0 -11 6 -8 15 4 8 12 15 20 15 8 0
11 -6 8 -15z m705 -108 c12 -23 16 -34 9 -23 -7 10 -24 32 -36 47 -14 17 -18
27 -10 24 8 -3 25 -25 37 -48z m-829 -43 c11 -30 20 -62 19 -72 0 -9 -6 1 -13
23 -7 22 -22 59 -34 83 -13 27 -16 39 -7 32 8 -7 23 -36 35 -66z m751 5 c30
-21 40 -45 14 -36 -7 3 -24 -2 -36 -12 l-22 -18 31 -11 c18 -6 32 -16 32 -22
0 -7 -6 -8 -19 0 -22 11 -38 13 -28 4 8 -8 -21 -64 -33 -64 -5 0 -3 12 5 27 9
16 11 32 5 42 -4 9 -6 31 -4 49 3 27 1 32 -18 32 -21 0 -21 0 -2 15 26 20 41
19 75 -6z m-106 1 c-3 -5 -11 -10 -16 -10 -6 0 -7 5 -4 10 3 6 11 10 16 10 6
0 7 -4 4 -10z m100 -139 c-4 -14 0 -23 15 -31 15 -8 20 -8 21 2 0 10 2 10 6 0
2 -6 8 -10 12 -8 3 2 22 1 41 -4 34 -8 34 -8 -15 -10 -27 -1 -44 -4 -37 -7 6
-2 10 -9 6 -14 -3 -5 10 -9 28 -9 25 0 29 3 18 10 -13 9 -13 10 0 10 22 0 44
-16 37 -27 -3 -5 20 -20 51 -33 57 -23 152 -93 152 -112 0 -6 -16 4 -35 20
-19 17 -52 34 -72 38 -21 3 -57 12 -81 20 -23 8 -50 14 -60 14 -9 1 -42 10
-72 21 l-55 20 48 -4 c26 -2 47 0 47 6 0 5 -6 7 -14 4 -8 -3 -20 1 -27 10 -10
11 -25 14 -57 10 -48 -5 -48 2 0 18 17 5 34 16 36 24 3 8 0 11 -7 7 -14 -9
-14 -1 1 24 16 25 21 25 13 1z m215 -214 c0 -5 -4 -5 -10 -2 -5 3 -10 14 -10
23 0 15 2 15 10 2 5 -8 10 -19 10 -23z m-646 11 c-5 -8 -2 -9 9 -5 9 3 19 2
22 -2 2 -5 21 -12 40 -15 20 -4 33 -11 30 -17 -4 -5 -1 -9 4 -9 37 0 135 -151
177 -273 26 -74 28 -83 39 -152 3 -21 12 -46 19 -55 7 -8 12 -24 10 -35 -1
-11 4 -28 13 -37 13 -15 13 -18 2 -18 -10 -1 -9 -4 4 -11 9 -5 17 -19 17 -29
0 -11 5 -20 10 -20 6 0 10 -7 10 -15 0 -12 14 -15 63 -17 97 -3 101 -3 135
-17 17 -7 37 -11 44 -8 8 3 5 6 -7 6 -16 1 -17 3 -6 10 12 8 13 12 1 25 -11
14 -11 16 1 11 8 -3 22 -19 31 -35 9 -16 30 -38 46 -47 16 -10 30 -22 31 -28
1 -5 6 -26 11 -45 5 -19 10 -38 10 -42 0 -4 7 -26 15 -49 21 -59 18 -81 -5
-36 -10 21 -21 46 -23 55 -3 9 -5 3 -6 -15 0 -17 4 -35 9 -38 6 -3 10 -14 9
-23 0 -14 -2 -13 -9 3 -11 25 -12 8 -4 -35 4 -17 10 -27 13 -22 11 19 4 -183
-9 -230 -7 -26 -10 -54 -7 -62 3 -8 0 -17 -8 -20 -18 -7 -29 78 -19 147 4 28
7 63 6 77 0 14 -4 72 -7 130 -3 58 -6 112 -7 120 0 31 -32 101 -50 111 -13 7
-18 6 -18 -3 -1 -8 -6 -6 -14 5 -8 10 -40 25 -73 32 -68 17 -167 20 -142 5 9
-5 20 -21 23 -34 3 -14 17 -28 33 -34 l28 -10 -30 -1 -29 -1 23 -16 c17 -12
20 -19 11 -24 -9 -6 -5 -13 15 -26 24 -16 25 -19 11 -30 -15 -11 -14 -14 11
-34 l28 -22 -29 8 c-27 6 -28 6 -15 -17 7 -13 13 -33 14 -44 0 -11 4 -26 9
-34 5 -8 11 -31 12 -50 1 -20 14 -116 28 -214 31 -213 31 -236 6 -447 -23
-193 -23 -183 -10 -175 6 3 10 3 11 -2 0 -4 2 -18 3 -30 2 -17 0 -20 -10 -12
-9 7 -12 0 -10 -31 0 -22 -3 -41 -7 -43 -18 -6 -8 -227 10 -242 8 -7 9 -15 3
-25 -7 -11 -11 -9 -19 12 -5 15 -18 31 -28 38 -16 10 -15 10 5 5 26 -7 31 15
7 35 -20 16 -25 10 -28 -29 -1 -17 -5 -31 -9 -31 -4 0 -5 -9 -3 -20 2 -11 -1
-20 -6 -20 -5 0 -1 -10 11 -22 21 -23 26 -38 12 -38 -5 0 -14 10 -20 23 -8 17
-11 18 -11 5 -1 -9 4 -20 10 -24 7 -4 7 -10 1 -16 -6 -6 -8 -16 -5 -23 3 -10
-2 -12 -16 -8 -12 3 -18 10 -14 17 3 6 -1 4 -10 -4 -18 -17 -31 -106 -17 -115
10 -6 12 2 14 60 1 32 25 42 34 15 4 -12 2 -13 -9 -3 -12 9 -14 4 -15 -30 -1
-36 -7 -79 -14 -97 -2 -3 -2 -8 -2 -12 1 -3 -5 -9 -14 -12 -9 -3 -12 -2 -9 4
17 27 13 69 -8 91 -12 12 -22 29 -23 37 -4 23 -14 27 -14 4 0 -26 -45 -78 -55
-62 -3 5 -3 16 1 23 4 6 3 9 -1 4 -10 -9 -45 21 -45 38 0 7 -6 18 -14 24 -12
10 -13 8 -9 -8 4 -15 1 -21 -10 -21 -9 0 -18 4 -22 9 -3 6 -14 8 -25 6 -13 -2
-17 1 -14 10 6 14 -25 69 -33 61 -3 -3 2 -15 11 -27 12 -18 13 -26 3 -43 -6
-12 -10 -24 -10 -27 4 -12 -52 -7 -59 5 -4 6 -11 11 -15 12 -15 1 -63 23 -63
28 0 7 31 -4 46 -16 8 -5 13 -1 17 12 3 11 1 18 -3 15 -18 -11 -59 7 -66 28
-8 28 -39 58 -50 49 -4 -4 -4 -1 0 6 4 7 2 12 -6 12 -8 1 -5 7 7 17 18 14 18
15 1 9 -12 -4 -24 2 -38 19 -11 14 -25 22 -31 18 -7 -3 -9 -3 -5 2 9 10 -10
47 -21 40 -11 -6 -23 23 -16 36 3 4 -3 14 -15 21 -25 16 -26 28 -1 21 11 -3
21 2 24 11 4 10 1 13 -8 10 -7 -3 -16 3 -20 15 -3 12 -11 21 -16 21 -5 0 -8 6
-7 12 2 7 -12 20 -29 28 -18 8 -33 22 -33 30 -1 10 -4 8 -13 -6 -7 -12 -18
-19 -24 -17 -7 3 -13 -2 -13 -10 0 -9 6 -18 13 -21 6 -4 1 -4 -13 -1 -14 3
-36 8 -50 11 -14 2 -31 7 -37 9 -20 7 -16 -5 29 -106 45 -102 58 -172 37 -210
l-12 -24 -12 35 c-7 19 -18 34 -24 32 -6 -1 -11 4 -11 11 0 7 -10 14 -22 14
-13 1 -27 9 -33 17 -9 12 -16 10 -43 -14 -32 -27 -44 -48 -19 -34 8 5 8 2 -2
-9 -14 -18 -37 -24 -27 -8 4 5 1 11 -5 13 -8 3 -6 10 5 20 15 16 15 18 -4 28
-11 6 -18 15 -16 19 8 13 -31 44 -45 35 -8 -4 -10 -3 -5 5 4 6 2 19 -5 27 -10
12 -10 15 1 12 9 -2 14 10 16 37 1 22 0 32 -2 23 -8 -26 -27 -22 -21 3 3 12 2
31 -3 43 -9 26 8 55 30 49 12 -4 13 -3 1 5 -7 5 -10 15 -7 21 4 6 2 11 -3 11
-6 0 -11 5 -11 11 0 5 5 7 10 4 12 -8 13 25 1 44 -6 9 -11 10 -15 2 -16 -26
-24 -8 -12 26 12 34 11 41 -5 63 -11 14 -20 37 -21 53 -1 15 -6 27 -10 27 -4
0 -8 4 -8 9 0 5 10 7 23 5 20 -4 20 -4 2 4 -21 10 -22 23 -12 135 3 31 1 47
-7 47 -15 0 -8 82 8 92 35 23 81 -7 75 -50 -2 -9 9 -42 24 -73 15 -31 27 -61
27 -68 0 -7 5 -9 10 -6 6 3 10 1 10 -5 0 -7 10 -20 23 -31 24 -20 42 -25 32
-9 -7 11 0 12 32 4 13 -4 20 -10 17 -15 -3 -5 2 -9 11 -9 9 0 13 -5 10 -10 -4
-7 2 -9 17 -5 18 5 33 -4 71 -39 26 -26 52 -46 57 -46 5 0 17 -11 26 -25 9
-14 19 -23 22 -20 3 3 11 -4 19 -15 8 -11 23 -24 33 -30 16 -9 18 -7 15 10 -6
32 13 13 20 -20 4 -17 11 -30 16 -30 5 0 8 3 8 8 -1 4 0 16 1 27 1 14 5 10 11
-13 7 -22 15 -32 23 -29 10 4 12 -1 9 -14 -3 -11 0 -19 6 -19 7 0 9 5 5 11 -8
14 38 -10 48 -24 9 -15 37 -17 32 -3 -3 7 1 32 9 54 15 44 6 56 -22 30 -10
-11 -11 -9 -5 7 4 11 3 17 -1 13 -5 -5 -15 1 -23 13 -8 11 -28 29 -46 40 -23
14 -26 19 -12 19 13 0 17 5 13 19 -4 16 -1 18 23 11 55 -16 88 3 67 37 -4 6
-2 15 4 19 8 5 4 12 -11 24 -20 15 -21 18 -6 33 9 8 16 21 16 27 0 6 4 9 8 6
4 -2 14 -1 22 4 22 14 -34 24 -58 11 -22 -12 -80 -15 -69 -5 4 4 14 7 24 8 39
3 92 31 102 53 10 21 16 24 44 18 17 -4 42 -13 55 -21 12 -8 27 -12 32 -9 11
7 40 -18 40 -33 0 -5 10 -12 23 -16 16 -4 28 1 45 20 12 14 22 23 22 20 0 -3
8 2 18 12 30 30 35 79 12 99 -10 9 -17 20 -14 25 9 15 -67 8 -82 -7 -18 -18
-37 -20 -32 -3 3 7 -16 30 -41 51 -119 100 -129 112 -86 101 24 -6 32 6 26 40
-1 4 14 6 34 4 37 -4 50 8 13 14 -11 2 -22 11 -24 21 -2 14 2 18 17 14 33 -9
11 10 -54 46 -75 41 -113 55 -102 37 6 -9 3 -9 -13 -1 -29 15 -37 14 -22 -4
11 -13 8 -13 -25 0 -23 10 -41 13 -48 7 -18 -14 -80 -23 -96 -13 -8 5 -10 14
-6 22 6 11 5 12 -5 2 -17 -16 -40 1 -40 28 0 20 -16 26 -22 8 -5 -14 -38 0
-38 16 0 7 -7 28 -15 46 l-16 34 4 -45 5 -45 -17 37 c-13 28 -20 34 -32 27
-22 -14 -36 -10 -16 5 13 10 15 16 7 21 -9 5 -9 10 -1 18 6 6 11 16 11 22 0 5
-5 3 -10 -5 -5 -8 -10 -10 -10 -5 -4 49 -6 165 -3 165 2 0 7 -10 12 -22 8 -21
8 -21 13 6 4 21 2 26 -9 22 -7 -3 -16 1 -19 9 -4 8 -11 15 -16 15 -6 0 -5 -6
2 -15 8 -9 9 -15 2 -15 -17 0 -22 16 -16 49 7 34 24 42 24 11 0 -11 6 -20 14
-20 11 0 13 9 10 35 -2 19 0 35 4 35 5 0 7 16 6 35 -2 19 1 35 7 35 6 0 7 14
3 35 -6 35 1 41 41 36 6 -1 -1 9 -15 21 -52 47 -66 73 -19 35 37 -30 48 -34
53 -22 7 20 26 19 26 -2 0 -13 3 -14 12 -5 9 9 6 16 -10 30 -12 11 -22 26 -22
35 0 9 -10 24 -23 34 -13 10 -22 24 -19 32 3 10 -1 12 -17 8 -16 -4 -21 -1
-21 14 0 10 -5 19 -11 19 -6 0 -9 -7 -5 -15 3 -8 1 -15 -5 -15 -5 0 -12 7 -15
15 -4 8 -14 15 -24 15 -10 0 -21 6 -23 13 -3 6 -3 -4 0 -23 l5 -35 -22 32
c-12 19 -27 30 -33 26 -8 -5 -8 -8 1 -11 19 -6 14 -42 -5 -42 -16 -1 -16 -2 2
-16 19 -16 19 -16 -5 -9 -13 4 -30 14 -38 21 -16 17 -32 18 -32 3 0 -5 -4 -8
-9 -5 -5 3 -7 15 -4 26 3 13 0 20 -8 20 -10 1 -8 4 4 11 23 14 22 38 -5 60
-11 11 -15 19 -8 19 7 0 10 7 6 15 -3 10 1 15 12 16 10 0 12 3 5 6 -18 7 -16
23 3 23 14 0 14 3 4 15 -10 12 -10 15 3 15 26 0 30 33 7 52 -21 17 -21 18 -4
20 11 0 25 1 32 1 6 -1 12 5 12 13 0 8 7 14 15 14 8 0 15 -5 15 -12 0 -8 4 -7
13 3 6 8 23 23 36 34 23 19 24 19 18 2 -4 -10 -4 -17 0 -15 5 2 22 10 38 17
17 7 39 18 50 22 11 5 34 11 50 13 17 2 42 9 58 15 18 7 27 7 27 0 0 -6 8 -6
21 2 20 10 21 9 16 -17 -6 -26 -5 -27 5 -7 12 24 38 39 38 21 0 -6 9 -3 20 7
28 25 118 46 104 23z m526 -13 c14 -8 21 -14 15 -14 -5 0 -21 6 -35 14 -14 8
-20 14 -15 14 6 0 21 -6 35 -14z m-1119 -178 c-10 -9 -11 -8 -5 6 3 10 9 15
12 12 3 -3 0 -11 -7 -18z m9 -155 c0 -13 -12 -22 -22 -16 -10 6 -1 24 13 24 5
0 9 -4 9 -8z m1270 -100 c16 -25 30 -50 30 -56 0 -6 -9 4 -20 22 -12 20 -25
30 -32 26 -7 -5 -8 -3 -3 5 4 8 -2 26 -16 44 -13 18 -16 26 -6 19 9 -8 30 -35
47 -60z m-1087 -19 c-7 -2 -13 -12 -13 -20 0 -9 -3 -14 -6 -10 -10 10 4 37 18
36 10 0 10 -2 1 -6z m97 -44 c12 -22 8 -35 -9 -25 -6 4 -7 14 -4 23 5 12 2 15
-10 10 -9 -3 -17 -2 -17 3 0 18 29 10 40 -11z m947 -10 c6 -6 17 -12 24 -13
61 -12 69 -18 63 -45 -4 -20 -3 -23 5 -11 9 12 11 12 11 1 0 -8 8 -20 18 -27
14 -11 15 -13 2 -14 -9 0 -21 5 -28 12 -8 8 -12 8 -12 1 0 -6 -11 -8 -25 -5
-24 4 -36 22 -14 22 5 0 -3 12 -18 26 -25 22 -25 24 -3 10 13 -9 29 -16 35
-16 13 1 -37 39 -51 40 -14 0 -40 30 -27 30 5 0 14 -5 20 -11z m263 -86 c0
-13 4 -21 10 -18 5 3 7 0 5 -7 -3 -8 1 -36 10 -63 8 -28 14 -57 14 -65 -1 -16
-40 91 -64 175 l-15 50 20 -24 c11 -13 20 -34 20 -48z m-364 -5 l29 -33 -32
29 c-31 28 -38 36 -30 36 2 0 16 -15 33 -32z m-971 2 c3 -6 -1 -7 -9 -4 -18 7
-21 14 -7 14 6 0 13 -4 16 -10z m1196 -67 c24 -57 40 -131 29 -138 -8 -5 -12
9 -25 87 -4 24 -15 44 -32 56 -15 11 -23 24 -19 30 13 22 27 12 47 -35z m46
41 c-3 -3 -12 -4 -19 -1 -8 3 -5 6 6 6 11 1 17 -2 13 -5z m-83 -39 c11 -8 18
-17 15 -19 -2 -3 -15 4 -29 14 -14 11 -20 20 -15 19 6 0 19 -6 29 -14z m-1174
-25 c8 -5 11 -10 5 -10 -5 0 -17 5 -25 10 -8 5 -10 10 -5 10 6 0 17 -5 25 -10z
m1300 -34 c0 -12 -5 -7 -19 24 -11 24 -11 24 3 6 9 -11 16 -24 16 -30z m87
-78 c-3 -7 -5 -2 -5 12 0 14 2 19 5 13 2 -7 2 -19 0 -25z m-339 -22 c15 -8 36
-24 47 -37 15 -17 8 -14 -30 11 -60 40 -60 40 -51 40 4 0 19 -6 34 -14z m404
-143 c47 -102 72 -173 82 -233 8 -49 -9 -20 -30 50 -9 30 -32 87 -51 125 -38
76 -66 155 -53 155 4 0 27 -44 52 -97z m-302 21 c18 -54 6 -49 -18 7 -14 33
-16 47 -7 39 8 -6 19 -27 25 -46z m-139 29 c13 -16 12 -17 -3 -4 -17 13 -22
21 -14 21 2 0 10 -8 17 -17z m-1394 -55 c-3 -8 -6 -5 -6 6 -1 11 2 17 5 13 3
-3 4 -12 1 -19z m1453 -38 c11 -22 27 -64 35 -93 l14 -52 0 39 c1 22 3 37 6
35 2 -3 7 -68 9 -145 5 -140 -6 -164 -19 -44 -14 118 -32 204 -53 253 -25 57
-20 62 8 7z m-1017 -10 c-3 -11 -9 -20 -13 -20 -5 0 -6 9 -3 20 3 11 9 20 13
20 5 0 6 -9 3 -20z m1094 -62 c-2 -13 -4 -3 -4 22 0 25 2 35 4 23 2 -13 2 -33
0 -45z m-562 -178 c3 -6 -1 -7 -9 -4 -18 7 -21 14 -7 14 6 0 13 -4 16 -10z
m525 -91 c0 -17 5 -39 11 -51 10 -18 9 -19 -8 -10 -13 8 -18 23 -19 51 0 23 3
41 8 41 4 0 8 -14 8 -31z m121 -65 c21 -23 24 -35 25 -112 1 -48 0 -67 -2 -42
-8 90 -10 93 -53 86 -38 -6 -39 -5 -44 27 -5 33 14 67 38 67 6 0 22 -12 36
-26z m-656 -53 c3 -6 -15 2 -40 15 -25 14 -45 28 -45 30 0 7 78 -35 85 -45z
m529 33 c23 -23 19 -40 -4 -19 -11 10 -20 22 -20 27 0 12 7 10 24 -8z m-720
-39 c-4 -8 -8 -15 -10 -15 -2 0 -4 7 -4 15 0 8 4 15 10 15 5 0 7 -7 4 -15z
m-1209 -5 c3 -5 1 -10 -4 -10 -6 0 -11 5 -11 10 0 6 2 10 4 10 3 0 8 -4 11
-10z m1265 -10 c0 -5 16 -17 35 -26 42 -20 44 -41 8 -76 -30 -27 -81 -49 -69
-29 4 6 2 11 -5 11 -7 0 -9 11 -5 33 4 17 9 47 13 65 5 28 23 47 23 22z m640
-10 c0 -5 10 -10 22 -10 17 0 19 -3 10 -12 -10 -10 -17 -7 -34 10 -12 12 -17
22 -10 22 7 0 12 -4 12 -10z m86 -103 c-2 -24 28 -188 35 -193 4 -2 14 28 23
68 8 40 17 82 19 93 3 13 5 9 6 -10 0 -16 -9 -64 -20 -105 -12 -41 -25 -105
-29 -142 -5 -36 -27 -120 -50 -185 -42 -119 -44 -126 -55 -175 -3 -16 -9 -28
-14 -28 -10 0 -36 59 -29 66 3 3 2 20 -2 39 -9 42 10 54 35 22 15 -20 15 -19
0 7 -20 33 -28 96 -14 96 15 0 58 53 59 72 0 9 4 20 10 23 5 3 14 23 20 43 8
31 6 51 -14 112 -13 41 -27 84 -31 94 -6 14 -5 17 3 12 11 -7 15 16 16 85 0 8
7 16 17 16 9 1 16 -4 15 -10z m-112 -397 l6 -35 -14 35 c-17 42 -20 58 -7 45
5 -6 12 -26 15 -45z m-1250 6 c-5 -14 -9 -15 -15 -5 -5 8 -3 17 4 21 15 9 19
4 11 -16z m412 -69 c2 -1 -4 -11 -12 -21 -9 -12 -14 -15 -14 -7 0 8 -8 20 -17
27 -16 12 -15 13 12 8 16 -3 30 -6 31 -7z m24 -52 c0 -25 -18 -25 -22 -1 -4
17 -1 23 9 19 7 -3 13 -11 13 -18z m1138 -114 c22 -79 14 -85 -12 -8 -15 44
-22 96 -12 86 3 -2 13 -37 24 -78z m-10 -48 c39 -82 123 -177 203 -230 42 -27
47 -43 7 -22 -24 12 -79 56 -139 111 -55 49 -142 218 -114 218 3 0 22 -35 43
-77z m-397 -25 c1 -13 1 -27 0 -31 -1 -5 4 -5 10 -1 6 3 16 0 21 -7 8 -11 9
-10 5 3 -3 9 0 19 8 22 20 7 23 -31 8 -78 -8 -23 -10 -43 -4 -49 5 -5 5 -26
-1 -50 -5 -23 -7 -57 -4 -75 3 -19 1 -30 -5 -27 -5 4 -9 21 -10 38 l0 32 -18
-43 c-9 -23 -19 -40 -22 -37 -3 3 -3 -15 1 -39 3 -24 3 -53 -2 -65 -4 -13 -5
-34 -2 -48 5 -17 3 -24 -3 -20 -6 4 -14 0 -17 -9 -3 -8 -2 -12 4 -9 6 4 8 -16
6 -52 -2 -32 -1 -51 2 -43 3 8 8 17 11 20 13 10 32 91 26 113 l-5 22 11 -22
c10 -18 7 -37 -12 -95 -12 -40 -23 -91 -22 -113 0 -26 -1 -30 -4 -12 -2 15 -7
27 -11 27 -8 0 -33 -54 -64 -135 l-19 -50 6 50 c4 28 15 59 26 71 10 11 19 27
19 36 0 9 7 21 15 28 8 7 15 20 15 29 -1 26 -40 -30 -40 -56 0 -13 -3 -23 -8
-23 -4 0 -18 -18 -31 -39 -14 -21 -30 -37 -36 -35 -6 3 -19 -10 -28 -28 -12
-23 -15 -26 -10 -8 4 14 7 37 8 52 0 14 3 24 8 21 4 -2 7 14 7 37 0 23 4 39 9
35 5 -3 8 -26 7 -50 -1 -25 1 -42 5 -38 4 4 10 52 12 105 3 72 9 101 21 113 9
9 16 27 16 40 0 13 6 28 13 32 8 4 19 23 25 41 6 19 7 30 2 27 -6 -4 -10 -12
-10 -19 0 -7 -9 -25 -20 -39 -11 -14 -20 -34 -20 -45 0 -12 -5 -24 -12 -28 -8
-5 -9 -2 -5 9 3 9 2 19 -3 22 -5 3 -7 13 -4 23 5 14 4 15 -5 2 -18 -25 -22 -4
-6 33 18 42 22 46 21 16 -1 -12 6 -24 14 -26 11 -3 12 -2 3 4 -19 14 5 86 26
78 8 -3 12 -3 9 1 -4 4 -3 15 2 24 7 14 5 19 -10 23 -11 3 -20 12 -20 21 0 20
19 21 26 1 14 -36 24 -9 23 62 -1 60 2 79 15 88 17 13 22 45 6 45 -5 0 -6 -7
-3 -17 4 -11 3 -14 -5 -9 -17 11 -15 23 10 48 17 17 19 23 7 27 -13 5 -15 19
-10 59 2 21 21 13 22 -10z m89 1 c0 -11 -4 -17 -10 -14 -5 3 -10 13 -10 21 0
8 5 14 10 14 6 0 10 -9 10 -21z m304 -79 c23 -35 24 -39 7 -28 -17 10 -48 68
-37 68 2 0 15 -18 30 -40z m-25 -57 c36 -56 77 -102 126 -139 19 -14 32 -30
29 -36 -3 -5 -12 -4 -22 4 -12 10 -14 10 -8 1 5 -9 2 -11 -8 -7 -9 3 -16 12
-16 19 0 8 -13 23 -29 35 -44 31 -131 170 -107 170 2 0 18 -21 35 -47z m-683
-60 c-4 -4 -11 -1 -16 7 -16 25 -11 35 7 17 9 -9 13 -20 9 -24z m562 -123 c20
-47 42 -91 49 -98 7 -8 11 -18 8 -23 -4 -5 2 -9 12 -10 11 0 13 -3 5 -6 -9 -3
-8 -11 6 -31 10 -15 22 -36 26 -47 5 -15 9 -16 15 -6 6 9 11 10 15 2 4 -6 2
-11 -3 -11 -6 0 -11 -8 -11 -17 0 -49 -136 204 -174 324 -20 64 -20 91 1 43 8
-19 31 -73 51 -120z m-505 94 c-2 -7 0 -15 6 -19 6 -3 11 -12 11 -18 -1 -17
-40 32 -40 50 0 8 -5 11 -11 8 -6 -4 -8 -14 -4 -24 5 -13 4 -13 -6 -4 -10 10
-9 17 6 33 17 18 19 19 30 3 7 -10 11 -23 8 -29z m207 36 c0 -5 -4 -10 -10
-10 -5 0 -10 5 -10 10 0 6 5 10 10 10 6 0 10 -4 10 -10z m378 -216 c27 -31 55
-85 47 -92 -4 -4 -12 1 -19 12 -6 10 -20 33 -32 50 -25 39 -91 191 -99 231 -3
17 14 -18 40 -76 25 -58 53 -115 63 -125z m-1128 206 c5 7 9 -4 12 -29 2 -27
0 -41 -8 -41 -7 0 -11 11 -9 25 1 14 -2 28 -6 31 -5 3 -9 11 -8 17 0 8 3 7 6
-2 4 -10 7 -10 13 -1z m-265 -18 c-3 -3 -11 0 -18 7 -9 10 -8 11 6 5 10 -3 15
-9 12 -12z m209 6 c-5 -8 -2 -9 11 -4 15 5 16 4 5 -9 -10 -12 -15 -13 -21 -3
-7 12 -3 28 7 28 3 0 2 -5 -2 -12z m115 -3 c8 0 16 -6 19 -12 2 -7 -3 -13 -10
-13 -17 0 -38 20 -38 35 0 6 3 7 8 0 4 -5 13 -10 21 -10z m594 -19 c-1 -17 2
-24 9 -20 7 4 8 3 4 -5 -10 -15 -36 4 -37 28 0 10 -2 11 -6 4 -2 -7 -9 -13
-15 -13 -6 0 -3 9 7 20 24 26 41 20 38 -14z m-303 8 c0 -8 -5 -12 -10 -9 -6 4
-8 11 -5 16 9 14 15 11 15 -7z m398 -40 c-3 -14 -5 -12 -10 9 -3 19 -2 25 4
19 6 -6 8 -18 6 -28z m-612 -36 c62 -84 85 -131 74 -149 -7 -11 -12 -11 -21
-2 -9 9 -9 16 1 28 7 9 9 15 4 13 -11 -4 -134 91 -134 103 0 5 -3 8 -7 8 -21
-3 -33 2 -28 12 4 6 13 8 21 5 7 -3 16 -1 19 4 3 5 -3 10 -12 13 -15 3 -14 6
7 15 14 6 26 11 28 11 1 1 23 -27 48 -61z m1045 -18 c1 -14 1 -36 1 -49 -3
-37 -25 -10 -28 34 -2 20 -10 43 -19 51 -8 8 -15 22 -15 29 0 24 58 -38 61
-65z m214 70 c3 -5 2 -10 -4 -10 -5 0 -13 5 -16 10 -3 6 -2 10 4 10 5 0 13 -4
16 -10z m-1434 -12 c22 -18 51 -68 40 -68 -5 0 -17 12 -27 28 -9 15 -25 32
-33 39 -9 7 -11 13 -5 13 5 0 17 -6 25 -12z m639 -28 c0 -4 3 -23 6 -41 4 -19
4 -31 0 -27 -4 3 -7 9 -7 12 0 3 -6 21 -14 41 -13 30 -13 34 0 29 8 -4 15 -10
15 -14z m228 -45 c0 -13 -6 -30 -14 -36 -10 -8 -13 -5 -11 18 2 22 12 41 23
43 1 0 2 -11 2 -25z m-135 -2 c-6 -16 -5 -16 10 -4 9 7 17 9 17 3 0 -8 -22
-22 -36 -22 -2 0 -4 9 -4 20 0 11 4 20 10 20 5 0 6 -8 3 -17z m557 -29 c16
-48 5 -55 -14 -9 -19 44 -19 45 -7 45 5 0 15 -16 21 -36z m-583 -6 c-3 -7 -5
-2 -5 12 0 14 2 19 5 13 2 -7 2 -19 0 -25z m-547 -2 c0 -11 -19 -15 -25 -6 -3
5 1 10 9 10 9 0 16 -2 16 -4z m717 -18 c-3 -8 -6 -5 -6 6 -1 11 2 17 5 13 3
-3 4 -12 1 -19z m-670 -20 c13 -10 7 -38 -8 -38 -5 0 -8 3 -7 8 1 4 -4 18 -11
31 -13 24 -7 24 26 -1z m644 -11 c-10 -9 -11 -8 -5 6 3 10 9 15 12 12 3 -3 0
-11 -7 -18z m-182 -134 c6 -13 8 -23 3 -23 -10 0 -32 60 -31 86 1 11 4 7 8
-11 4 -16 13 -40 20 -52z m28 35 c-3 -8 -6 -5 -6 6 -1 11 2 17 5 13 3 -3 4
-12 1 -19z m4 -72 c-7 -8 -8 -16 -4 -18 4 -3 2 -3 -4 -2 -7 2 -17 -5 -22 -14
-6 -9 -11 -13 -11 -9 0 13 32 57 42 57 6 0 6 -6 -1 -14z m-377 -32 c3 -8 2
-12 -4 -9 -6 3 -10 10 -10 16 0 14 7 11 14 -7z m-445 -60 c-6 -8 -15 -11 -20
-8 -5 3 -9 -2 -9 -10 0 -8 5 -18 12 -22 6 -4 8 -3 4 4 -3 6 -2 14 4 17 13 8
100 13 118 7 17 -6 15 -22 -4 -22 -13 0 -15 -7 -10 -34 6 -33 6 -35 -21 -31
-15 2 -32 4 -37 4 -4 1 -6 7 -3 15 8 21 -2 26 -29 16 -15 -6 -24 -6 -24 0 0 5
-6 7 -13 4 -7 -2 -13 3 -14 13 0 10 -3 28 -6 40 -3 13 -2 25 4 28 5 4 9 0 9
-7 0 -8 5 -6 11 5 8 14 14 16 25 6 11 -9 11 -15 3 -25z m-159 6 c0 -5 -5 -10
-11 -10 -5 0 -7 5 -4 10 3 6 8 10 11 10 2 0 4 -4 4 -10z m90 0 c0 -5 -5 -10
-11 -10 -5 0 -7 5 -4 10 3 6 8 10 11 10 2 0 4 -4 4 -10z m1184 -134 c9 4 24
-16 45 -59 18 -36 38 -71 46 -77 17 -14 20 -40 5 -40 -5 0 -15 7 -22 16 -7 9
-31 37 -53 62 -58 68 -101 148 -111 205 -5 25 3 17 35 -40 27 -48 46 -70 55
-67z m-1204 104 c0 -5 -2 -10 -4 -10 -3 0 -8 5 -11 10 -3 6 -1 10 4 10 6 0 11
-4 11 -10z m30 -11 c0 -6 -4 -7 -10 -4 -5 3 -10 11 -10 16 0 6 5 7 10 4 6 -3
10 -11 10 -16z m210 -30 c0 -12 -37 -12 -44 0 -3 4 -3 11 0 14 8 7 44 -4 44
-14z m41 -29 c-4 -3 -14 -22 -22 -42 -14 -39 -31 -53 -22 -18 3 11 -2 32 -12
46 -9 15 -13 24 -7 20 5 -3 15 1 22 9 9 11 16 12 30 2 11 -6 16 -14 11 -17z
m1189 -11 c17 -13 18 -17 5 -10 -33 17 -51 31 -40 31 6 0 21 -10 35 -21z
m-1295 -19 c3 -5 1 -10 -4 -10 -6 0 -11 5 -11 10 0 6 2 10 4 10 3 0 8 -4 11
-10z m737 -42 c-7 -7 -12 -8 -12 -2 0 14 12 26 19 19 2 -3 -1 -11 -7 -17z
m-101 -71 c-10 -9 -11 -8 -5 6 3 10 9 15 12 12 3 -3 0 -11 -7 -18z m109 -6 c0
-6 -4 -13 -10 -16 -5 -3 -10 1 -10 9 0 9 5 16 10 16 6 0 10 -4 10 -9z m-5 -41
c8 -13 -5 -13 -25 0 -13 8 -13 10 2 10 9 0 20 -4 23 -10z m-731 -66 c4 -10 1
-14 -6 -12 -15 5 -23 28 -10 28 5 0 13 -7 16 -16z m-97 -19 c0 -8 -6 -16 -14
-19 -16 -7 -17 6 -1 22 15 15 15 15 15 -3z m143 0 c0 -12 -19 -12 -23 0 -4 9
-1 12 9 8 7 -3 14 -7 14 -8z m-160 -40 c13 8 50 -13 50 -28 0 -7 -4 -6 -10 3
-9 13 -10 13 -10 0 -1 -12 -3 -12 -14 2 -7 10 -16 15 -20 11 -7 -7 -35 26 -36
42 0 5 7 -1 16 -13 8 -12 19 -20 24 -17z m110 25 c8 -5 11 -10 5 -10 -5 0 -17
5 -25 10 -8 5 -10 10 -5 10 6 0 17 -5 25 -10z m-46 -15 c-4 -8 -11 -12 -16 -9
-6 4 -5 10 3 15 19 12 19 11 13 -6z m16 -20 c0 -8 -4 -15 -10 -15 -5 0 -7 7
-4 15 4 8 8 15 10 15 2 0 4 -7 4 -15z m697 -7 c-3 -8 -6 -5 -6 6 -1 11 2 17 5
13 3 -3 4 -12 1 -19z m63 -108 c64 -80 73 -139 40 -254 -50 -177 -127 -289
-312 -460 -37 -33 -182 -130 -172 -115 4 7 -3 5 -17 -4 -13 -9 -30 -17 -39
-17 -11 0 -12 2 -2 8 7 5 10 16 6 25 -3 10 -1 17 5 17 6 0 11 5 11 10 0 6 -8
10 -18 10 -27 0 -32 9 -19 37 8 18 8 29 -1 43 -7 12 -8 21 -2 25 5 3 7 18 4
34 -4 20 -1 30 10 34 10 4 13 12 9 23 -4 10 -2 15 3 11 6 -3 15 3 22 14 7 11
8 19 2 19 -5 0 -10 -5 -10 -11 0 -5 -5 -7 -12 -3 -8 5 1 19 27 41 38 33 61 30
47 -5 -3 -10 -1 -13 6 -8 7 4 12 18 12 32 0 27 86 161 101 156 5 -1 9 3 9 9 0
5 13 24 30 42 19 21 30 27 30 17 0 -14 9 0 46 70 7 14 22 34 32 45 10 11 17
26 15 32 -5 15 24 78 55 120 13 17 23 40 22 50 -1 10 1 29 6 43 7 24 8 23 16
-14 5 -21 22 -55 38 -76z m-230 -234 c0 -2 -8 -10 -17 -17 -16 -13 -17 -12 -4
4 13 16 21 21 21 13z m-220 -695 c0 -19 -25 -32 -65 -34 -24 -1 -45 -19 -38
-31 3 -4 -4 -5 -16 -1 -12 3 -21 2 -21 -4 0 -5 -9 -8 -20 -6 -11 2 -20 -2 -20
-8 0 -7 -4 -6 -10 3 -7 12 -10 12 -10 1 0 -8 -6 -11 -17 -7 -9 4 -19 2 -22 -3
-4 -6 -12 -6 -19 -2 -9 5 9 15 50 29 102 35 186 67 194 75 11 11 14 9 14 -12z
m-130 -253 c0 -5 -5 -8 -11 -8 -5 0 -7 5 -4 10 3 6 1 10 -5 10 -6 0 -8 5 -4
11 6 11 23 -6 24 -23z m45 -18 c-3 -5 -11 -10 -16 -10 -6 0 -7 5 -4 10 3 6 11
10 16 10 6 0 7 -4 4 -10z m-35 -10 c0 -5 -7 -10 -16 -10 -8 0 -12 5 -9 10 3 6
10 10 16 10 5 0 9 -4 9 -10z m105 0 c3 -5 1 -10 -4 -10 -6 0 -11 5 -11 10 0 6
2 10 4 10 3 0 8 -4 11 -10z m-34 -33 c-8 -8 -11 -7 -11 4 0 20 13 34 18 19 3
-7 -1 -17 -7 -23z m16 -39 c-3 -7 -5 -2 -5 12 0 14 2 19 5 13 2 -7 2 -19 0
-25z m17 -34 c3 -8 2 -12 -4 -9 -6 3 -10 10 -10 16 0 14 7 11 14 -7z m66 -75
c0 -6 -4 -7 -10 -4 -5 3 -10 11 -10 16 0 6 5 7 10 4 6 -3 10 -11 10 -16z m17
-21 c-3 -8 -6 -5 -6 6 -1 11 2 17 5 13 3 -3 4 -12 1 -19z m20 -130 c-3 -8 -6
-5 -6 6 -1 11 2 17 5 13 3 -3 4 -12 1 -19z m20 -180 c-3 -8 -6 -5 -6 6 -1 11
2 17 5 13 3 -3 4 -12 1 -19z m22 -83 c0 -5 -4 -3 -9 5 -5 8 -9 22 -9 30 0 16
17 -16 18 -35z"/>
<path d="M4490 5511 c0 -11 16 -17 70 -25 l35 -6 -30 14 c-49 22 -75 28 -75
17z"/>
<path d="M4627 5469 c7 -7 15 -10 18 -7 3 3 -2 9 -12 12 -14 6 -15 5 -6 -5z"/>
<path d="M3424 5131 c4 -5 2 -11 -3 -13 -6 -2 -6 -18 -2 -38 6 -32 8 -33 13
-11 4 13 11 20 17 16 14 -8 14 -2 -1 30 -6 14 -15 25 -20 25 -5 0 -7 -4 -4 -9z"/>
<path d="M3525 5080 c3 -5 10 -10 16 -10 5 0 9 5 9 10 0 6 -7 10 -16 10 -8 0
-12 -4 -9 -10z"/>
<path d="M3596 5061 c-3 -5 1 -11 9 -15 9 -3 15 0 15 9 0 16 -16 20 -24 6z"/>
<path d="M3633 5054 c-3 -8 -2 -19 3 -24 5 -5 9 1 9 16 0 28 -3 30 -12 8z"/>
<path d="M3460 5049 c0 -5 5 -7 10 -4 6 3 10 8 10 11 0 2 -4 4 -10 4 -5 0 -10
-5 -10 -11z"/>
<path d="M3667 5043 c-11 -11 -8 -20 7 -20 8 0 12 6 9 14 -6 15 -7 15 -16 6z"/>
<path d="M3680 4981 c0 -12 5 -21 10 -21 6 0 10 6 10 14 0 8 -4 18 -10 21 -5
3 -10 -3 -10 -14z"/>
<path d="M3720 4831 c0 -6 4 -13 10 -16 6 -3 7 1 4 9 -7 18 -14 21 -14 7z"/>
<path d="M3640 4809 c0 -5 5 -7 10 -4 6 3 10 8 10 11 0 2 -4 4 -10 4 -5 0 -10
-5 -10 -11z"/>
<path d="M3725 4790 c3 -5 8 -10 11 -10 2 0 4 5 4 10 0 6 -5 10 -11 10 -5 0
-7 -4 -4 -10z"/>
<path d="M3645 4620 c28 -12 37 -12 30 0 -3 6 -16 10 -28 9 -21 0 -21 -1 -2
-9z"/>
<path d="M4706 4607 c3 -10 9 -15 12 -12 3 3 0 11 -7 18 -10 9 -11 8 -5 -6z"/>
<path d="M4711 4575 c1 -19 18 -51 18 -35 0 8 -4 22 -9 30 -5 8 -9 11 -9 5z"/>
<path d="M4721 4225 c-2 -11 -5 -33 -7 -50 -3 -25 -2 -27 7 -12 5 9 8 32 6 50
-2 17 -5 23 -6 12z"/>
<path d="M3683 3474 c1 -15 8 -29 15 -32 10 -3 13 4 10 24 -4 37 -28 45 -25 8z"/>
<path d="M3657 3433 c-8 -13 12 -55 23 -48 7 4 6 14 -1 28 -15 29 -16 30 -22
20z"/>
<path d="M3876 3361 c-4 -5 -2 -12 3 -15 5 -4 12 -2 15 3 4 5 2 12 -3 15 -5 4
-12 2 -15 -3z"/>
<path d="M3896 3235 c7 -18 0 -19 -26 -5 -16 9 -18 7 -16 -12 4 -32 16 -58 28
-58 5 0 6 6 2 13 -5 8 -2 7 9 -2 20 -16 35 -8 20 11 -6 7 -8 25 -6 41 2 15 -1
27 -6 27 -6 0 -8 -7 -5 -15z"/>
<path d="M3410 3176 c0 -9 5 -16 10 -16 6 0 10 4 10 9 0 6 -4 13 -10 16 -5 3
-10 -1 -10 -9z"/>
<path d="M3890 3150 c0 -6 7 -10 15 -10 8 0 15 2 15 4 0 2 -7 6 -15 10 -8 3
-15 1 -15 -4z"/>
<path d="M3948 3081 c8 -4 13 -12 12 -17 -1 -5 4 -10 10 -12 9 -3 9 1 1 17 -7
11 -17 21 -24 21 -8 0 -8 -3 1 -9z"/>
<path d="M3985 3041 c-3 -5 -1 -12 5 -16 5 -3 10 1 10 9 0 18 -6 21 -15 7z"/>
<path d="M4179 2982 c6 -12 16 -24 22 -28 8 -4 8 -1 0 14 -6 12 -16 24 -22 28
-8 4 -8 1 0 -14z"/>
<path d="M4065 2940 c3 -5 11 -10 16 -10 6 0 7 5 4 10 -3 6 -11 10 -16 10 -6
0 -7 -4 -4 -10z"/>
<path d="M4366 2933 c-6 -14 -5 -15 5 -6 7 7 10 15 7 18 -3 3 -9 -2 -12 -12z"/>
<path d="M4520 2970 c0 -5 5 -10 11 -10 5 0 7 5 4 10 -3 6 -8 10 -11 10 -2 0
-4 -4 -4 -10z"/>
<path d="M4497 2933 c-7 -37 -2 -40 20 -14 l18 22 7 -23 c7 -22 7 -22 5 2 -2
15 -8 24 -16 22 -8 -2 -17 2 -21 8 -4 7 -10 0 -13 -17z"/>
<path d="M4495 2881 c-3 -5 -1 -12 5 -16 5 -3 10 1 10 9 0 18 -6 21 -15 7z"/>
<path d="M4436 2608 c-5 -21 -14 -42 -22 -49 -17 -14 -19 -49 -3 -49 6 0 9 9
6 20 -3 11 -2 20 3 20 12 0 32 56 28 77 -3 12 -7 5 -12 -19z"/>
<path d="M4454 2560 c-4 -16 -10 -30 -15 -30 -5 0 -9 -12 -8 -27 l0 -28 12 25
c6 14 17 31 23 37 7 7 10 22 7 33 -7 28 -12 25 -19 -10z"/>
<path d="M4402 2420 c0 -14 2 -19 5 -12 2 6 2 18 0 25 -3 6 -5 1 -5 -13z"/>
<path d="M3700 2310 c0 -5 5 -10 10 -10 6 0 10 5 10 10 0 6 -4 10 -10 10 -5 0
-10 -4 -10 -10z"/>
<path d="M4109 1513 c-19 -5 -32 -53 -18 -67 12 -13 49 22 49 45 0 21 -9 27
-31 22z"/>
<path d="M4820 1700 c8 -5 20 -10 25 -10 6 0 3 5 -5 10 -8 5 -19 10 -25 10 -5
0 -3 -5 5 -10z"/>
<path d="M4870 1680 c8 -5 22 -9 30 -9 10 0 8 3 -5 9 -27 12 -43 12 -25 0z"/>
<path d="M4513 1188 c-15 -20 -25 -38 -20 -38 3 0 12 11 21 25 17 26 16 35 -1
13z"/>
<path d="M5136 1070 c4 -19 13 -46 21 -60 12 -23 13 -23 13 -4 0 11 -3 24 -7
28 -4 3 -8 16 -10 29 -2 12 -8 26 -13 31 -7 7 -8 -1 -4 -24z"/>
<path d="M4100 1000 c14 -10 27 -17 29 -14 6 5 -31 33 -44 33 -5 1 1 -8 15
-19z"/>
<path d="M4359 993 c-13 -16 -12 -17 4 -4 9 7 17 15 17 17 0 8 -8 3 -21 -13z"/>
<path d="M4048 988 c7 -7 12 -16 12 -21 0 -5 -7 -1 -16 7 -20 21 -34 20 -34
-1 0 -9 3 -14 6 -10 3 3 24 -5 45 -19 21 -13 39 -20 39 -14 0 6 -7 13 -15 16
-8 4 -15 13 -15 21 0 13 3 13 25 -1 31 -20 32 -14 3 14 -24 22 -72 30 -50 8z"/>
<path d="M4990 970 c0 -5 5 -10 11 -10 5 0 7 5 4 10 -3 6 -8 10 -11 10 -2 0
-4 -4 -4 -10z"/>
<path d="M4289 934 c-7 -9 -42 -37 -78 -62 -37 -26 -69 -50 -72 -55 -3 -5 -10
-8 -15 -7 -5 1 -10 -3 -12 -9 -2 -6 -1 -11 3 -11 8 0 64 38 83 57 7 7 17 13
21 13 4 0 28 20 54 45 27 25 44 45 39 45 -5 0 -15 -7 -23 -16z"/>
<path d="M5036 915 c38 -53 54 -69 61 -62 3 4 -16 28 -42 54 -47 48 -47 48
-19 8z"/>
<path d="M5165 900 c3 -5 8 -10 11 -10 2 0 4 5 4 10 0 6 -5 10 -11 10 -5 0 -7
-4 -4 -10z"/>
<path d="M5160 839 c0 -5 5 -7 10 -4 6 3 10 8 10 11 0 2 -4 4 -10 4 -5 0 -10
-5 -10 -11z"/>
<path d="M5100 836 c0 -8 64 -76 71 -76 4 0 9 11 12 25 3 16 0 24 -7 22 -6 -2
-19 5 -30 15 -18 16 -46 25 -46 14z"/>
<path d="M4075 790 c-3 -5 0 -19 8 -30 13 -19 14 -18 14 10 0 30 -10 39 -22
20z"/>
<path d="M3927 759 c-5 -20 0 -24 19 -11 9 5 8 10 -1 19 -10 9 -14 8 -18 -8z"/>
<path d="M4400 751 c0 -5 5 -13 10 -16 6 -3 10 -2 10 4 0 5 -4 13 -10 16 -5 3
-10 2 -10 -4z"/>
<path d="M4380 733 c0 -4 5 -15 10 -23 8 -13 10 -13 10 2 0 9 -4 20 -10 23 -5
3 -10 3 -10 -2z"/>
<path d="M4431 717 c-1 -10 -5 -15 -11 -12 -6 3 -10 -4 -10 -16 0 -21 -1 -22
-20 -4 -21 19 -25 14 -12 -13 5 -9 6 -28 1 -42 -7 -24 -7 -24 -8 5 -1 17 -11
41 -22 55 l-20 25 15 -32 c11 -22 12 -33 4 -35 -7 -3 -5 -13 7 -31 10 -16 13
-27 6 -27 -6 0 -11 -10 -11 -22 l-1 -23 -19 24 c-23 27 -25 23 -8 -14 14 -31
19 -31 39 1 l16 26 1 -31 c0 -18 -4 -30 -11 -28 -7 1 -11 -4 -9 -10 1 -7 -2
-13 -7 -13 -5 0 -7 -9 -4 -20 5 -20 17 -19 19 1 1 5 2 15 3 22 1 7 7 3 13 -7
8 -15 8 -21 0 -24 -7 -2 -12 -10 -12 -18 0 -9 -5 -12 -11 -8 -8 4 -10 -3 -7
-22 3 -16 3 -23 1 -16 -3 6 -8 12 -13 12 -4 0 -6 8 -3 19 3 10 0 22 -5 25 -6
4 -8 -3 -4 -16 3 -14 2 -19 -6 -14 -17 10 -15 -5 4 -25 18 -20 36 -99 23 -99
-4 0 -10 6 -12 13 -4 7 -6 6 -6 -4 -1 -9 5 -19 13 -22 7 -3 16 -16 19 -29 6
-20 2 -18 -23 11 -17 18 -30 29 -30 24 0 -6 9 -20 20 -33 11 -13 20 -27 20
-32 0 -5 4 -7 9 -4 9 6 21 -26 21 -59 0 -11 14 -35 30 -54 36 -41 39 -53 5
-21 -24 23 -25 23 -25 3 0 -12 7 -23 15 -27 8 -3 15 -10 15 -16 0 -5 -9 -2
-20 7 -11 10 -20 30 -20 45 0 15 -5 30 -10 33 -7 4 -9 -3 -5 -22 5 -24 5 -25
-5 -10 -7 10 -9 24 -6 32 2 7 -3 23 -13 34 -25 29 -35 26 -15 -4 15 -22 15
-26 0 -40 -9 -9 -16 -22 -16 -28 0 -7 4 -6 10 3 9 13 11 13 20 0 15 -22 12
-30 -7 -23 -17 7 -17 6 0 -17 9 -14 22 -35 27 -48 l10 -22 230 0 c218 1 230 2
230 20 0 23 16 35 26 19 4 -8 3 -9 -4 -5 -8 5 -12 0 -12 -13 0 -21 5 -21 200
-21 169 0 199 2 194 14 -3 8 -12 12 -20 9 -10 -4 -12 0 -8 11 3 9 1 16 -5 16
-6 0 -11 -5 -11 -11 0 -5 -5 -7 -11 -3 -6 3 -9 15 -6 25 3 10 1 22 -4 25 -5 3
-9 -2 -9 -11 0 -10 -5 -13 -12 -9 -8 5 -9 2 -5 -9 9 -24 -4 -21 -36 8 -20 19
-27 22 -27 10 0 -8 5 -15 10 -15 6 0 10 -5 10 -12 0 -9 -3 -9 -11 -1 -9 9 -17
9 -32 0 -15 -9 -21 -9 -24 1 -4 10 -9 8 -19 -5 -8 -11 -13 -13 -14 -5 0 6 -4
12 -10 12 -5 0 -7 -6 -4 -14 3 -8 -3 -16 -15 -19 -16 -4 -21 0 -21 14 0 10 -4
19 -9 19 -5 0 -11 9 -14 21 -3 12 -10 18 -16 14 -6 -3 -11 1 -11 9 0 8 -5 18
-12 22 -7 5 -9 2 -4 -7 5 -8 2 -8 -6 2 -15 18 -60 44 -70 41 -5 -1 -8 4 -8 12
0 8 -5 18 -11 22 -7 4 -9 0 -5 -14 10 -29 -25 -23 -40 7 -8 16 -13 19 -17 9
-3 -7 -6 -4 -6 9 -1 12 2 23 7 26 4 2 1 2 -5 1 -7 -2 -13 1 -13 7 0 6 -4 8 -9
4 -5 -3 -13 -1 -16 5 -4 6 -1 9 7 8 8 -2 12 5 10 17 -2 11 -3 27 -4 35 -1 8
-9 26 -20 39 -10 13 -18 31 -18 40 1 11 5 8 16 -9 10 -17 13 -18 8 -5 -3 11
-7 25 -7 32 0 7 -4 10 -9 7 -4 -3 -11 2 -14 10 -3 9 -10 13 -15 10 -9 -5 -13
15 -11 47 1 9 -12 31 -28 49 -21 23 -28 40 -24 53 5 16 3 19 -10 14 -11 -4
-15 -3 -11 4 4 5 1 17 -6 25 -9 11 -9 18 -2 22 7 5 6 11 -3 20 -12 10 -14 10
-14 -2 0 -10 -6 -13 -16 -9 -11 4 -14 14 -10 37 3 17 3 24 -1 16 -3 -8 -13
-21 -21 -29 -13 -13 -14 -13 -8 6 4 12 2 24 -4 28 -6 3 -10 -4 -11 -17 0 -13
-3 -17 -6 -10 -7 19 -23 4 -16 -16 5 -13 3 -14 -6 -6 -10 9 -10 17 -1 33 6 12
9 27 6 34 -2 7 -5 4 -5 -6z m178 -247 c0 -10 -3 -8 -9 5 -12 27 -12 43 0 25 5
-8 9 -22 9 -30z m-228 -119 c6 9 7 2 3 -17 -4 -19 -1 -34 5 -38 6 -4 11 -12
11 -19 0 -20 -27 27 -33 58 -3 17 -4 24 0 16 5 -11 7 -11 14 0z m16 -163 c-3
-7 -5 -2 -5 12 0 14 2 19 5 13 2 -7 2 -19 0 -25z m424 -105 c13 -16 12 -17 -3
-4 -10 7 -18 15 -18 17 0 8 8 3 21 -13z m-448 -13 c3 -11 1 -18 -4 -14 -5 3
-9 12 -9 20 0 20 7 17 13 -6z m507 -42 c0 -10 -4 -18 -10 -18 -5 0 -7 6 -4 14
3 8 0 25 -6 38 -11 22 -10 22 4 4 9 -11 16 -28 16 -38z m-70 26 c0 -8 -5 -12
-10 -9 -6 4 -8 11 -5 16 9 14 15 11 15 -7z m-413 -26 c-3 -8 -6 -5 -6 6 -1 11
2 17 5 13 3 -3 4 -12 1 -19z"/>
<path d="M4010 711 c0 -6 4 -13 10 -16 6 -3 7 1 4 9 -7 18 -14 21 -14 7z"/>
<path d="M6225 681 c6 -30 5 -33 -11 -27 -35 14 -54 15 -56 3 0 -7 -2 -16 -2
-22 -1 -5 -5 -16 -10 -23 -4 -7 -5 -32 -2 -55 5 -37 5 -39 -5 -17 -10 21 -13
22 -16 8 -3 -10 -9 -18 -14 -18 -5 0 -9 -6 -9 -14 0 -7 -8 -20 -17 -27 -15
-12 -16 -12 -9 6 5 11 10 31 13 45 2 14 -3 7 -11 -15 -9 -22 -16 -41 -16 -42
0 -1 -9 -1 -20 0 -22 1 -27 13 -7 20 9 4 9 7 -1 18 -7 8 -13 10 -12 4 5 -22
-1 -27 -16 -14 -13 10 -17 10 -25 -2 -12 -19 -11 -39 1 -39 6 0 10 -7 10 -15
0 -8 5 -15 11 -15 12 0 4 -50 -9 -60 -12 -8 -32 -49 -32 -62 0 -10 2 -10 9 1
7 11 10 11 17 0 4 -7 3 -14 -3 -16 -6 -2 -9 -25 -7 -55 2 -29 0 -55 -6 -58 -5
-3 -5 -11 0 -20 8 -13 10 -12 10 2 0 25 17 31 23 8 3 -11 2 -18 -3 -15 -11 7
-22 -39 -14 -59 3 -9 1 -29 -4 -45 -19 -54 2 -61 176 -61 84 0 152 4 152 8 0
4 -6 14 -12 21 -10 11 -10 13 0 7 7 -5 12 -1 12 9 0 9 -3 14 -7 12 -5 -3 -8 6
-8 19 0 13 3 24 6 24 3 0 6 15 6 32 0 18 4 46 8 62 7 25 6 28 -10 23 -13 -5
-16 -3 -12 8 4 8 2 17 -4 21 -6 3 -9 16 -8 27 3 40 -1 58 -11 52 -7 -4 -7 3 0
20 13 35 13 38 -5 31 -9 -3 -15 0 -15 10 0 8 5 12 10 9 14 -8 13 38 -1 52 -6
6 -8 17 -4 24 6 9 11 7 22 -6 11 -16 13 -16 13 -3 0 9 6 18 13 21 9 3 9 9 -2
30 -11 21 -18 24 -31 17 -15 -8 -18 -5 -18 13 0 12 -3 36 -6 52 -4 17 -8 47
-10 68 -2 21 -7 41 -11 45 -4 4 -4 -8 0 -27z m-195 -204 c5 2 7 -4 4 -12 -4
-8 -9 -15 -11 -15 -10 0 -32 35 -32 50 0 11 4 10 15 -5 8 -11 19 -19 24 -18z
m-3 -89 c-3 -8 -6 -5 -6 6 -1 11 2 17 5 13 3 -3 4 -12 1 -19z m-24 -48 c3 -11
1 -18 -4 -14 -5 3 -9 12 -9 20 0 20 7 17 13 -6z m3 -83 c1 -17 -1 -26 -3 -19
-3 6 -9 10 -14 6 -12 -7 -11 3 1 27 14 25 15 24 16 -14z m4 -137 c0 -5 -4 -10
-10 -10 -5 0 -10 5 -10 10 0 6 5 10 10 10 6 0 10 -4 10 -10z"/>
<path d="M3998 670 c9 -16 21 -30 25 -30 5 0 0 14 -10 30 -9 17 -21 30 -25 30
-4 0 1 -13 10 -30z"/>
<path d="M4316 667 c3 -10 9 -15 12 -12 3 3 0 11 -7 18 -10 9 -11 8 -5 -6z"/>
<path d="M5626 664 c-3 -9 1 -25 9 -37 13 -18 15 -19 15 -4 0 9 -5 17 -11 17
-6 0 -8 9 -4 20 7 24 0 27 -9 4z"/>
<path d="M3970 662 c0 -6 5 -14 10 -17 6 -3 10 -13 10 -21 0 -20 -20 -17 -21
4 0 9 -3 12 -5 5 -3 -7 0 -22 6 -33 l12 -22 15 21 c13 19 12 24 -6 47 -12 15
-21 22 -21 16z"/>
<path d="M5706 653 c-6 -14 -5 -15 5 -6 7 7 10 15 7 18 -3 3 -9 -2 -12 -12z"/>
<path d="M6280 615 c0 -8 4 -15 10 -15 5 0 7 7 4 15 -4 8 -8 15 -10 15 -2 0
-4 -7 -4 -15z"/>
<path d="M4320 613 c0 -4 5 -15 10 -23 8 -13 10 -13 10 2 0 9 -4 20 -10 23 -5
3 -10 3 -10 -2z"/>
<path d="M5620 600 c0 -5 5 -10 11 -10 5 0 7 5 4 10 -3 6 -8 10 -11 10 -2 0
-4 -4 -4 -10z"/>
<path d="M4000 576 c0 -9 5 -16 10 -16 6 0 10 4 10 9 0 6 -4 13 -10 16 -5 3
-10 -1 -10 -9z"/>
<path d="M5940 572 c0 -15 28 -47 35 -40 4 3 -3 16 -14 27 -12 12 -21 17 -21
13z"/>
<path d="M5980 574 c0 -5 7 -18 15 -28 8 -11 15 -16 15 -10 0 5 -7 18 -15 28
-8 11 -15 16 -15 10z"/>
<path d="M6101 564 c0 -11 3 -14 6 -6 3 7 2 16 -1 19 -3 4 -6 -2 -5 -13z"/>
<path d="M4590 556 c0 -9 5 -16 10 -16 6 0 10 4 10 9 0 6 -4 13 -10 16 -5 3
-10 -1 -10 -9z"/>
<path d="M5636 547 c3 -10 9 -15 12 -12 3 3 0 11 -7 18 -10 9 -11 8 -5 -6z"/>
<path d="M5945 510 c3 -5 8 -10 11 -10 2 0 4 5 4 10 0 6 -5 10 -11 10 -5 0 -7
-4 -4 -10z"/>
<path d="M5942 470 c7 -10 14 -18 15 -16 6 6 -9 36 -18 36 -5 0 -4 -9 3 -20z"/>
<path d="M4291 454 c0 -11 3 -14 6 -6 3 7 2 16 -1 19 -3 4 -6 -2 -5 -13z"/>
<path d="M4636 455 c4 -8 8 -15 10 -15 2 0 4 7 4 15 0 8 -4 15 -10 15 -5 0 -7
-7 -4 -15z"/>
<path d="M5446 435 c-9 -26 -7 -32 5 -12 6 10 9 21 6 23 -2 3 -7 -2 -11 -11z"/>
<path d="M5940 430 c0 -5 5 -10 11 -10 5 0 7 5 4 10 -3 6 -8 10 -11 10 -2 0
-4 -4 -4 -10z"/>
<path d="M5973 415 c-16 -17 -17 -35 -3 -35 6 0 10 7 10 15 0 8 5 15 10 15 6
0 10 5 10 10 0 14 -13 12 -27 -5z"/>
<path d="M5421 394 c0 -11 3 -14 6 -6 3 7 2 16 -1 19 -3 4 -6 -2 -5 -13z"/>
<path d="M4320 370 c0 -5 5 -10 10 -10 6 0 10 5 10 10 0 6 -4 10 -10 10 -5 0
-10 -4 -10 -10z"/>
<path d="M5945 360 c-3 -5 -1 -10 4 -10 6 0 11 5 11 10 0 6 -2 10 -4 10 -3 0
-8 -4 -11 -10z"/>
<path d="M4701 344 c0 -11 3 -14 6 -6 3 7 2 16 -1 19 -3 4 -6 -2 -5 -13z"/>
<path d="M5311 324 c0 -11 3 -14 6 -6 3 7 2 16 -1 19 -3 4 -6 -2 -5 -13z"/>
<path d="M5342 320 c-6 -10 -8 -21 -3 -24 5 -3 11 4 14 16 8 29 4 32 -11 8z"/>
<path d="M5406 287 c3 -10 9 -15 12 -12 3 3 0 11 -7 18 -10 9 -11 8 -5 -6z"/>
<path d="M5361 283 c-1 -6 -4 -20 -7 -30 -5 -17 -5 -17 6 0 6 10 9 23 6 30 -3
9 -5 9 -5 0z"/>
<path d="M6380 278 c0 -7 5 -20 10 -28 8 -12 10 -9 10 13 0 15 -4 27 -10 27
-5 0 -10 -6 -10 -12z"/>
<path d="M4261 254 c0 -11 3 -14 6 -6 3 7 2 16 -1 19 -3 4 -6 -2 -5 -13z"/>
<path d="M5260 250 c0 -5 5 -10 11 -10 5 0 7 5 4 10 -3 6 -8 10 -11 10 -2 0
-4 -4 -4 -10z"/>
<path d="M5300 250 c0 -5 5 -10 11 -10 5 0 7 5 4 10 -3 6 -8 10 -11 10 -2 0
-4 -4 -4 -10z"/>
<path d="M4287 229 c4 -13 8 -18 11 -10 2 7 -1 18 -6 23 -8 8 -9 4 -5 -13z"/>
<path d="M4326 227 c3 -10 9 -15 12 -12 3 3 0 11 -7 18 -10 9 -11 8 -5 -6z"/>
<path d="M4776 227 c3 -10 9 -15 12 -12 3 3 0 11 -7 18 -10 9 -11 8 -5 -6z"/>
<path d="M5076 227 c3 -10 9 -15 12 -12 3 3 0 11 -7 18 -10 9 -11 8 -5 -6z"/>
<path d="M5240 235 c0 -5 5 -17 10 -25 5 -8 10 -10 10 -5 0 6 -5 17 -10 25 -5
8 -10 11 -10 5z"/>
<path d="M5332 220 c0 -14 2 -19 5 -12 2 6 2 18 0 25 -3 6 -5 1 -5 -13z"/>
<path d="M5541 224 c0 -11 3 -14 6 -6 3 7 2 16 -1 19 -3 4 -6 -2 -5 -13z"/>
<path d="M5950 230 c0 -5 5 -10 11 -10 5 0 7 5 4 10 -3 6 -8 10 -11 10 -2 0
-4 -4 -4 -10z"/>
<path d="M5506 217 c3 -10 9 -15 12 -12 3 3 0 11 -7 18 -10 9 -11 8 -5 -6z"/>
<path d="M4750 193 c0 -21 3 -24 9 -14 5 8 7 20 4 28 -8 21 -13 15 -13 -14z"/>
<path d="M4350 203 c0 -4 5 -15 10 -23 8 -13 10 -13 10 2 0 9 -4 20 -10 23 -5
3 -10 3 -10 -2z"/>
<path d="M5441 194 c0 -11 3 -14 6 -6 3 7 2 16 -1 19 -3 4 -6 -2 -5 -13z"/>
<path d="M4080 180 c6 -11 12 -20 14 -20 2 0 2 9 -1 20 -3 11 -9 20 -15 20 -5
0 -4 -9 2 -20z"/>
<path d="M5550 170 c0 -11 5 -19 12 -17 6 1 13 -7 15 -18 3 -16 2 -17 -6 -5
-9 12 -11 11 -11 -7 0 -30 18 -29 26 1 4 17 -1 31 -15 45 -21 21 -21 21 -21 1z"/>
<path d="M5597 170 c3 -11 7 -20 9 -20 2 0 4 9 4 20 0 11 -4 20 -9 20 -5 0 -7
-9 -4 -20z"/>
<path d="M4256 167 c3 -10 9 -15 12 -12 3 3 0 11 -7 18 -10 9 -11 8 -5 -6z"/>
<path d="M5471 164 c0 -11 3 -14 6 -6 3 7 2 16 -1 19 -3 4 -6 -2 -5 -13z"/>
<path d="M5511 164 c0 -11 3 -14 6 -6 3 7 2 16 -1 19 -3 4 -6 -2 -5 -13z"/>
<path d="M6384 165 c-4 -8 -4 -31 -2 -49 2 -19 0 -32 -4 -30 -4 3 -8 -15 -8
-40 0 -34 4 -46 15 -46 12 0 15 17 15 90 0 87 -4 107 -16 75z"/>
<path d="M5051 154 c0 -11 3 -14 6 -6 3 7 2 16 -1 19 -3 4 -6 -2 -5 -13z"/>
<path d="M5301 154 c0 -11 3 -14 6 -6 3 7 2 16 -1 19 -3 4 -6 -2 -5 -13z"/>
<path d="M4111 144 c0 -11 3 -14 6 -6 3 7 2 16 -1 19 -3 4 -6 -2 -5 -13z"/>
<path d="M5951 144 c0 -11 3 -14 6 -6 3 7 2 16 -1 19 -3 4 -6 -2 -5 -13z"/>
<path d="M4236 137 c3 -10 9 -15 12 -12 3 3 0 11 -7 18 -10 9 -11 8 -5 -6z"/>
<path d="M5156 137 c3 -10 9 -15 12 -12 3 3 0 11 -7 18 -10 9 -11 8 -5 -6z"/>
<path d="M5241 134 c0 -11 3 -14 6 -6 3 7 2 16 -1 19 -3 4 -6 -2 -5 -13z"/>
<path d="M5326 141 c-4 -5 -2 -12 3 -15 5 -4 12 -2 15 3 4 5 2 12 -3 15 -5 4
-12 2 -15 -3z"/>
<path d="M5451 143 c-1 -6 -4 -20 -7 -30 -5 -17 -5 -17 6 0 6 10 9 23 6 30 -3
9 -5 9 -5 0z"/>
<path d="M5490 140 c0 -5 5 -10 11 -10 5 0 7 5 4 10 -3 6 -8 10 -11 10 -2 0
-4 -4 -4 -10z"/>
<path d="M5526 134 c-8 -22 -4 -25 11 -9 7 8 9 16 4 19 -5 3 -12 -1 -15 -10z"/>
<path d="M5281 124 c0 -11 3 -14 6 -6 3 7 2 16 -1 19 -3 4 -6 -2 -5 -13z"/>
<path d="M4130 116 c0 -9 5 -16 10 -16 6 0 10 4 10 9 0 6 -4 13 -10 16 -5 3
-10 -1 -10 -9z"/>
<path d="M5066 115 c-3 -9 -6 -22 -5 -28 0 -7 5 -1 10 12 5 13 8 26 5 28 -2 2
-6 -3 -10 -12z"/>
<path d="M5611 114 c0 -11 3 -14 6 -6 3 7 2 16 -1 19 -3 4 -6 -2 -5 -13z"/>
<path d="M4971 104 c0 -11 3 -14 6 -6 3 7 2 16 -1 19 -3 4 -6 -2 -5 -13z"/>
<path d="M5220 111 c0 -5 7 -15 17 -22 15 -13 15 -12 4 9 -12 23 -21 28 -21
13z"/>
<path d="M5311 100 c-1 -20 -3 -22 -11 -10 -8 12 -10 9 -10 -12 0 -43 -20 -44
-21 -1 l-1 38 -9 -34 c-10 -32 -11 -33 -30 -15 -10 9 -19 14 -19 10 0 -11 32
-41 44 -41 6 0 10 -8 10 -18 -1 -9 5 -17 13 -17 8 0 12 4 8 9 -3 5 4 25 16 45
11 19 19 43 16 53 -3 13 -5 11 -6 -7z"/>
<path d="M5350 104 c0 -8 5 -12 10 -9 6 4 8 11 5 16 -9 14 -15 11 -15 -7z"/>
<path d="M5540 105 c0 -5 5 -17 10 -25 5 -8 10 -10 10 -5 0 6 -5 17 -10 25 -5
8 -10 11 -10 5z"/>
<path d="M5330 95 c0 -5 5 -17 10 -25 5 -8 10 -10 10 -5 0 6 -5 17 -10 25 -5
8 -10 11 -10 5z"/>
<path d="M5381 83 c-1 -13 -5 -23 -11 -23 -5 0 -10 -9 -10 -21 0 -21 0 -21
-20 2 -16 20 -19 21 -20 7 0 -10 -4 -18 -10 -18 -5 0 -10 -7 -10 -15 0 -8 5
-15 10 -15 6 0 10 7 10 15 0 8 5 15 11 15 6 0 9 -6 6 -13 -3 -8 7 -13 29 -14
28 -1 34 2 34 18 0 10 -4 19 -10 19 -5 0 -7 -7 -4 -15 4 -8 1 -15 -5 -15 -14
0 -14 20 -1 40 9 13 12 12 25 -4 13 -17 15 -18 15 -3 0 9 -4 17 -8 17 -5 0
-14 10 -20 23 l-11 22 0 -22z"/>
<path d="M5421 88 c-1 -20 14 -24 25 -6 4 6 3 8 -4 4 -5 -3 -13 0 -15 6 -3 8
-6 6 -6 -4z"/>
<path d="M5590 79 c0 -11 -4 -17 -10 -14 -5 3 -10 -1 -10 -9 0 -9 7 -16 15
-16 10 0 15 10 15 30 0 17 -2 30 -5 30 -3 0 -5 -9 -5 -21z"/>
<path d="M5635 90 c3 -5 8 -10 11 -10 2 0 4 5 4 10 0 6 -5 10 -11 10 -5 0 -7
-4 -4 -10z"/>
<path d="M4160 75 c0 -8 4 -15 10 -15 5 0 7 7 4 15 -4 8 -8 15 -10 15 -2 0 -4
-7 -4 -15z"/>
<path d="M4290 81 c0 -7 11 -24 25 -37 14 -13 25 -28 25 -34 0 -5 5 -10 10
-10 13 0 1 22 -35 65 -14 17 -25 24 -25 16z"/>
<path d="M4996 77 c3 -10 9 -15 12 -12 3 3 0 11 -7 18 -10 9 -11 8 -5 -6z"/>
<path d="M5040 72 c0 -15 4 -20 16 -15 9 3 12 9 7 12 -4 3 -11 10 -15 15 -5 5
-8 0 -8 -12z"/>
<path d="M5610 66 c0 -7 7 -16 15 -20 8 -3 15 -15 15 -26 0 -11 4 -20 9 -20
14 0 0 43 -20 63 -15 14 -19 15 -19 3z"/>
<path d="M5491 54 c0 -11 3 -14 6 -6 3 7 2 16 -1 19 -3 4 -6 -2 -5 -13z"/>
<path d="M5660 60 c0 -5 5 -10 11 -10 5 0 7 5 4 10 -3 6 -8 10 -11 10 -2 0 -4
-4 -4 -10z"/>
<path d="M4182 48 c-18 -18 -15 -48 6 -48 14 0 14 2 3 9 -12 8 -13 12 -1 25
15 20 9 31 -8 14z"/>
<path d="M5450 44 c0 -8 -4 -12 -10 -9 -5 3 -10 -1 -10 -10 0 -9 -4 -13 -10
-10 -5 3 -10 2 -10 -4 0 -5 15 -9 33 -9 17 1 26 3 20 5 -8 3 -11 14 -7 29 3
13 3 24 0 24 -3 0 -6 -7 -6 -16z"/>
<path d="M4210 28 c0 -16 5 -28 10 -28 13 0 13 20 0 40 -8 12 -10 9 -10 -12z"/>
<path d="M4276 33 c-6 -14 -5 -15 5 -6 7 7 10 15 7 18 -3 3 -9 -2 -12 -12z"/>
<path d="M4117 21 c-3 -14 -1 -18 9 -14 16 6 18 19 5 27 -5 3 -11 -3 -14 -13z"/>
<path d="M4250 23 c0 -13 5 -23 10 -23 13 0 13 11 0 30 -8 12 -10 11 -10 -7z"/>
<path d="M5516 27 c3 -10 9 -15 12 -12 3 3 0 11 -7 18 -10 9 -11 8 -5 -6z"/>
<path d="M5605 29 c-4 -6 -5 -12 -2 -15 2 -3 7 2 10 11 7 17 1 20 -8 4z"/>
<path d="M4300 17 c0 -10 8 -17 18 -17 9 0 13 4 7 8 -5 4 -13 11 -17 16 -5 5
-8 2 -8 -7z"/>
<path d="M5561 14 c0 -11 3 -14 6 -6 3 7 2 16 -1 19 -3 4 -6 -2 -5 -13z"/>
</g>
</svg>
