<?xml version="1.0" encoding="UTF-8"?>
<!DOCTYPE svg PUBLIC "-//W3C//DTD SVG 1.1//EN" "http://www.w3.org/Graphics/SVG/1.1/DTD/svg11.dtd">
<!-- Creator: CorelDRAW 2020 (64-Bit) -->
<svg xmlns="http://www.w3.org/2000/svg" xml:space="preserve" width="2000px" height="527px" version="1.1" style="shape-rendering:geometricPrecision; text-rendering:geometricPrecision; image-rendering:optimizeQuality; fill-rule:evenodd; clip-rule:evenodd"
viewBox="0 0 1990.52 524.56"
 xmlns:xlink="http://www.w3.org/1999/xlink"
 xmlns:xodm="http://www.corel.com/coreldraw/odm/2003">
 <defs>
  <style type="text/css">
   <![CDATA[
    .str1 {stroke:white;stroke-width:1.25;stroke-miterlimit:22.9256;stroke-opacity:0.501961}
    .str0 {stroke:white;stroke-width:1.25;stroke-miterlimit:22.9256}
    .fil11 {fill:none}
    .fil5 {fill:none;fill-rule:nonzero}
    .fil14 {fill:none}
    .fil0 {fill:#F0F0F0}
    .fil1 {fill:white}
    .fil15 {fill:#EFEFEF;fill-rule:nonzero}
    .fil3 {fill:white;fill-rule:nonzero}
    .fil9 {fill:white;fill-opacity:0.000000}
    .fil13 {fill:white;fill-opacity:0.450980}
    .fil2 {fill:white;fill-opacity:0.501961}
    .fil8 {fill:white;fill-rule:nonzero;fill-opacity:0.549020}
    .fil4 {fill:white;fill-rule:nonzero;fill-opacity:0.600000}
    .fil12 {fill:white;fill-opacity:0.619608}
    .fil7 {fill:white;fill-opacity:0.650980}
    .fil6 {fill:white;fill-rule:nonzero;fill-opacity:0.701961}
    .fil10 {fill:white;fill-rule:nonzero}
   ]]>
  </style>
   <clipPath id="id0">
    <path d="M0 0l1990.52 0 0 524.56 -1990.52 0 0 -524.56z"/>
   </clipPath>
     <clipPath id="id1">
      <path d="M1276.28 193.3l317.57 -183.29 -53.52 128.92 -319.04 184.13 54.99 -129.76zm229.46 -114.75l-103.92 59.97 -17.99 42.47 104.39 -60.26 17.52 -42.18z"/>
     </clipPath>
     <clipPath id="id2">
      <path d="M0 0l1990.52 0 0 524.56 -1990.52 0 0 -524.56z"/>
     </clipPath>
     <clipPath id="id3">
      <path d="M1276.28 193.3l317.57 -183.29 -53.52 128.92 -319.04 184.13 54.99 -129.76zm229.46 -114.75l-103.92 59.97 -17.99 42.47 104.39 -60.26 17.52 -42.18z"/>
     </clipPath>
     <clipPath id="id4">
      <path d="M0 0l1990.52 0 0 524.56 -1990.52 0 0 -524.56z"/>
     </clipPath>
 </defs>
 <g id="Layer_x0020_1">
  <metadata id="CorelCorpID_0Corel-Layer"/>
  <polygon class="fil0" points="0,0 1990.52,0 1990.52,524.56 0,524.56 "/>
  <g style="clip-path:url(#id0)">
   <g id="_2063105372640">
    <g>
     <polygon id="1" class="fil1" points="1284.63,6.15 1602.19,-177.13 1548.68,-48.22 1229.64,135.92 "/>
     <polygon class="fil2" points="1562.94,313.15 1761.09,198.79 1727.7,279.22 1528.63,394.12 "/>
     <polygon class="fil3 str0" points="1524.46,509.71 1558.13,430.27 1754.86,316.73 1722.1,395.65 "/>
     <g>
      <polygon class="fil4" points="1838.9,201.31 1919.3,11.58 2385.91,-257.73 2307.66,-69.25 "/>
      <polygon class="fil5 str0" points="1838.9,201.31 1919.3,11.58 2385.91,-257.73 2307.66,-69.25 "/>
     </g>
     <polygon class="fil3 str0" points="1826.59,477.13 1906.99,287.4 2373.62,18.09 2295.37,206.58 "/>
     <g>
      <polygon class="fil6" points="1506.17,221.06 1522.95,181.45 1622.19,124.17 1605.86,163.52 "/>
      <polygon class="fil5 str0" points="1506.17,221.06 1522.95,181.45 1622.19,124.17 1605.86,163.52 "/>
     </g>
     <polygon class="fil3 str0" points="1503.52,280.37 1520.31,240.77 1619.55,183.49 1603.21,222.84 "/>
     <polygon class="fil1" points="1097.29,98.85 1165.45,59.51 1153.97,87.18 1085.48,126.71 "/>
     <polygon class="fil7" points="1095.49,139.02 1163.66,99.68 1152.18,127.35 1083.69,166.88 "/>
     <polygon class="fil3 str0" points="1341.15,361.75 1348.15,345.25 1390.84,320.61 1384.04,337 "/>
     <g>
      <polygon class="fil6" points="1340,387.75 1346.99,371.24 1389.68,346.6 1382.88,363 "/>
      <polygon class="fil5 str0" points="1340,387.75 1346.99,371.24 1389.68,346.6 1382.88,363 "/>
     </g>
     <polygon class="fil3 str0" points="1927.47,486.2 1941.09,454.07 2022.02,407.36 2008.77,439.27 "/>
     <g>
      <polygon class="fil8" points="1925.31,534.73 1938.92,502.6 2019.86,455.89 2006.61,487.81 "/>
      <polygon class="fil5 str0" points="1925.31,534.73 1938.92,502.6 2019.86,455.89 2006.61,487.81 "/>
     </g>
     <polygon class="fil3 str0" points="1179.11,215.97 1182.74,207.4 1206.01,193.97 1202.48,202.48 "/>
     <polygon class="fil3 str0" points="1178.46,230.52 1182.09,221.95 1205.36,208.52 1201.83,217.03 "/>
     <polygon class="fil3 str0" points="1149.58,-25.31 1162.32,-55.38 1238.22,-99.18 1225.82,-69.31 "/>
     <polygon class="fil1" points="1159.9,-10.17 1237.21,-54.79 1224.18,-23.4 1146.51,21.42 "/>
     <polygon class="fil1" points="1745.88,48.2 1831.35,-1.13 1816.94,33.57 1731.08,83.12 "/>
     <path class="fil1" d="M1276.28 193.3l317.57 -183.29 -53.52 128.92 -319.04 184.13 54.99 -129.76zm229.46 -114.75l-103.92 59.97 -17.99 42.47 104.39 -60.26 17.52 -42.18z"/>
    </g>
    <g style="clip-path:url(#id1)">
     <polygon class="fil9" points="1221.29,10.01 1593.85,10.01 1593.85,323.06 1221.29,323.06 "/>
    </g>
    <g style="clip-path:url(#id2)">
    </g>
    <g style="clip-path:url(#id3)">
     <g>
      <path id="1" class="fil10" d="M1593.85 10.01l0.92 0.39 1.12 -2.72 -2.54 1.47 0.5 0.86zm-317.57 183.29l-0.5 -0.87 -0.28 0.17 -0.13 0.31 0.91 0.39zm264.05 -54.37l0.5 0.87 0.29 -0.17 0.13 -0.31 -0.92 -0.39zm-319.04 184.13l-0.91 -0.39 -1.16 2.74 2.57 -1.48 -0.5 -0.87zm180.53 -184.54l-0.5 -0.86 -0.29 0.17 -0.13 0.31 0.92 0.38zm103.92 -59.97l0.92 0.38 1.12 -2.71 -2.54 1.47 0.5 0.86zm-121.91 102.44l-0.92 -0.39 -1.16 2.74 2.57 -1.49 -0.49 -0.86zm104.39 -60.26l0.5 0.87 0.29 -0.17 0.13 -0.31 -0.92 -0.39zm105.13 -111.58l-317.57 183.28 1 1.73 317.56 -183.28 -0.99 -1.73zm-52.1 130.17l53.52 -128.92 -1.85 -0.77 -53.51 128.92 1.84 0.77zm-319.46 184.61l319.04 -184.13 -1 -1.73 -319.03 184.13 0.99 1.73zm53.58 -131.02l-54.99 129.76 1.83 0.78 54.99 -129.77 -1.83 -0.77zm126.95 -53.52l103.91 -59.98 -0.99 -1.72 -103.92 59.97 1 1.73zm-17.58 41.99l18 -42.47 -1.84 -0.77 -17.99 42.46 1.83 0.78zm102.99 -61.51l-104.4 60.25 0.99 1.73 104.4 -60.25 -0.99 -1.73zm17.08 -41.7l-17.51 42.18 1.84 0.77 17.52 -42.19 -1.85 -0.76z"/>
     </g>
    </g>
    <g style="clip-path:url(#id4)">
     <path class="fil11" d="M1276.28 193.3l317.57 -183.29 -53.52 128.92 -319.04 184.13 54.99 -129.76zm229.46 -114.75l-103.92 59.97 -17.99 42.47 104.39 -60.26 17.52 -42.18z"/>
     <g>
      <polygon class="fil6" points="1848.97,240.74 1857.83,219.84 1911.29,188.99 1902.67,209.75 "/>
      <polygon class="fil5 str0" points="1848.97,240.74 1857.83,219.84 1911.29,188.99 1902.67,209.75 "/>
     </g>
     <polygon class="fil3 str0" points="1847.53,273.08 1856.39,252.18 1909.85,221.32 1901.23,242.09 "/>
     <polygon class="fil12" points="1682.24,14.47 1948.55,-139.24 1903.67,-31.13 1636.12,123.29 "/>
     <polygon class="fil13" points="1821.88,255.61 2721.97,-263.88 2570.29,101.51 1666.01,623.42 "/>
     <polygon class="fil14 str1" points="1667.05,622.24 1822.27,255.96 2720.94,-262.71 2569.9,101.16 "/>
     <polygon class="fil3 str0" points="1630.16,279.06 1675.63,171.76 1940.53,18.87 1896.28,125.47 "/>
     <polygon class="fil15 str0" points="1734.37,31.58 1748.52,-1.82 1832.57,-50.32 1818.8,-17.15 "/>
    </g>
   </g>
  </g>
  <polygon class="fil11" points="0,0 1990.52,0 1990.52,524.56 0,524.56 "/>
 </g>
</svg>
